<svg id="Layer_1" xmlns="http://www.w3.org/2000/svg" viewBox="0 0 270.3 432" width="1564" height="2500">
    <g transform="translate(371.99 247)" id="Vector">
        <path fill="white" d="M-236.9 185c-2.1 0-4.1-1.1-5.3-2.8L-370.8-2c-2-2.9-1.3-7 1.6-9s7-1.3 9 1.6l123.3 176.6L-126.2 4.8l-108 48.1c-1.9.9-4.1.8-5.9-.3l-128.8-77.4c-1.5-.9-2.6-2.4-2.9-4-.4-1.6-.1-3.4.8-4.9l127.4-210.2c1.2-1.9 3.2-3.1 5.5-3.1 2.1 0 4.3 1.1 5.5 3l129.9 206.6c1.5 2.4 1.3 5.4-.5 7.5s-4.7 2.9-7.3 1.9l-127.3-49.9-93.4 45.4c-3.2 1.5-7.1.2-8.6-3s-.2-7.1 3-8.6l96.1-46.7c1.6-.8 3.5-.9 5.2-.2L-124-47.2l-114-181.1-118.7 195.7 120.3 72.2 125.6-55.9c2.6-1.2 5.7-.4 7.5 1.7 1.8 2.3 2 5.4.4 7.7l-128.6 189c-1.2 1.8-3.3 2.9-5.4 2.9z"/>
    </g>
</svg>